<svg xmlns="http://www.w3.org/2000/svg" viewBox="0 0 36 36"><path fill="#FFE51E" d="M19 0c-1.721 0-3.343.406-4.793 1.111A7.064 7.064 0 0 0 13 1a7 7 0 0 0-7 7v12h.018C6.201 26.467 11.489 31.656 18 31.656S29.799 26.467 29.982 20H30v-9c0-6.075-4.925-11-11-11z"/><path fill="#9268CA" d="M31.696 30.132A4 4 0 0 0 27.791 27H8.209a4 4 0 0 0-3.905 3.132l-.763 3.434A2 2 0 0 0 5.493 36h25.014a1.998 1.998 0 0 0 1.952-2.434l-.763-3.434z"/><path fill="#7450A8" d="M26 33.46c-1.802.43-3.184.98-4.538 1.521-.923.368-1.822.724-2.808 1.02h2.95l.246-.098c1.303-.52 2.65-1.058 4.382-1.47l3.98-.948-.232-.973-3.98.948zM8.854 34.626c-.434 0-.863-.145-1.208-.406l-1.885-1.427.604-.797 1.885 1.427c.26.196.616.252.921.152l4.224-1.408c1.988-.666 4.718-.876 7.126-1.061 1.661-.127 3.229-.248 3.962-.5l.326.945c-.854.294-2.41.414-4.212.552-2.35.181-5.015.385-6.885 1.012l-4.226 1.409a2 2 0 0 1-.632.102z"/><path fill="#F3D2A2" d="M6.707 31.542a.5.5 0 0 0 .052.752l1.491 1.129a.998.998 0 0 0 .92.151l4.072-1.357c-2.019-2.318-4.868-2.341-6.535-.675zM30 32.593a5.162 5.162 0 0 0-5.815-1.867l-.114.038L26 33.46l4-.867c0-.001-.001-.001 0 0zM15 22v6a3 3 0 1 0 6 0v-6h-6z"/><path fill="#F3D2A2" d="M9 5v12c0 4.971 4.029 9 9 9s9-4.029 9-9V5H9z"/><path fill="#FFE51E" d="M27.999 5 26 4H8v7c6 0 6-6 6-6s2 7 14 7l-.001-7z"/><path fill="#DF1F32" d="M20.5 23a.5.5 0 0 1-.373-.167C20.088 22.79 19.346 22 18 22c-1.354 0-2.097.8-2.128.834a.501.501 0 0 1-.705.037.498.498 0 0 1-.042-.702C15.168 22.121 16.181 21 18 21s2.832 1.121 2.874 1.169A.498.498 0 0 1 20.5 23z"/><path fill="#C1694F" d="M19 19.5h-2a.5.5 0 0 1 0-1h2a.5.5 0 0 1 0 1z"/><path fill="#662113" d="M14 16a1 1 0 0 1-1-1v-1a1 1 0 0 1 2 0v1a1 1 0 0 1-1 1zM22 16a1 1 0 0 1-1-1v-1a1 1 0 1 1 2 0v1a1 1 0 0 1-1 1z"/></svg>
