<svg xmlns="http://www.w3.org/2000/svg" viewBox="0 0 36 36"><path fill="#4289C1" d="M31.696 30.132A4 4 0 0 0 27.791 27H8.209a4 4 0 0 0-3.905 3.132l-.763 3.434A2 2 0 0 0 5.493 36h25.014a1.998 1.998 0 0 0 1.952-2.434l-.763-3.434z"/><path fill="#2A6797" d="M26 33.46c-1.802.43-3.184.98-4.538 1.521-.923.368-1.822.724-2.808 1.02h2.95l.246-.098c1.303-.52 2.65-1.058 4.382-1.47l3.98-.948-.232-.973-3.98.948zM8.854 34.626c-.434 0-.863-.145-1.208-.406l-1.885-1.427.604-.797 1.885 1.427c.26.196.616.252.921.152l4.224-1.408c1.988-.666 4.718-.876 7.126-1.061 1.661-.127 3.229-.248 3.962-.5l.326.945c-.854.294-2.41.414-4.212.552-2.35.181-5.015.385-6.885 1.012l-4.226 1.409a2 2 0 0 1-.632.102z"/><path fill="#7C533E" d="M6.707 31.542a.5.5 0 0 0 .052.752l1.491 1.129a.998.998 0 0 0 .92.151l4.072-1.357c-2.019-2.318-4.868-2.341-6.535-.675zM30 32.593a5.162 5.162 0 0 0-5.815-1.867l-.114.038L26 33.46l4-.867c0-.001-.001-.001 0 0zM15 24v4a3 3 0 1 0 6 0v-4h-6z"/><path fill="#7C533E" d="M9 5.938V17c0 4.971 4.029 9 9 9s9-4.029 9-9V6.25L9 5.938z"/><ellipse fill="#7C533E" cx="9.059" cy="13.715" rx="1.788" ry="2.861"/><ellipse fill="#7C533E" cx="26.941" cy="13.715" rx="1.788" ry="2.861"/><path fill="#0B0200" d="M18 .823c-7.019 0-10.139 4.684-10.139 8.588 0 3.903 1.343 4.986 1.56 3.903.78-3.903 3.12-5.101 3.12-5.101 4.68 3.904 3.9.781 3.9.781 4.679 4.684 2.34 0 2.34 0 1.56 1.562 6.239 1.562 6.239 1.562s.78 1.198 1.559 2.759c.78 1.562 1.56 0 1.56-3.903 0-3.905-3.9-8.589-10.139-8.589z"/><path fill="#3D2E24" d="M20.5 23a.5.5 0 0 1-.373-.167C20.088 22.79 19.346 22 18 22c-1.354 0-2.097.8-2.128.834a.501.501 0 0 1-.705.037.498.498 0 0 1-.042-.702C15.168 22.121 16.181 21 18 21s2.832 1.121 2.874 1.169A.498.498 0 0 1 20.5 23zM19 19.5h-2a.5.5 0 0 1 0-1h2a.5.5 0 0 1 0 1z"/><path d="M14 16a1 1 0 0 1-1-1v-1a1 1 0 0 1 2 0v1a1 1 0 0 1-1 1zM22 16a1 1 0 0 1-1-1v-1a1 1 0 0 1 2 0v1a1 1 0 0 1-1 1z"/></svg>
