<svg xmlns="http://www.w3.org/2000/svg" viewBox="0 0 36 36"><path fill="#FFE51E" d="M16.947 1C8.11 1 3.674 6.737 2.637 10.98c-.759 3.106.392 6.733.743 10.701.31 3.521 2.363 6.478 4.466 7.076 3.025 3.816 6.241 3.653 11.641 3.653 10.544 0 14.494-7.882 14.494-16.943C33.98 8.541 29.097 1 16.947 1z"/><path fill="#F3D2A2" d="M29.893 16.208c-1.02-1.413-2.327-2.55-5.19-2.953 1.074.492 2.102 2.192 2.237 3.132s.268 1.7-.581.761c-3.406-3.764-7.115-2.282-10.789-4.581-2.567-1.606-3.349-3.383-3.349-3.383s-.313 2.371-4.206 4.788c-1.128.701-2.474 2.26-3.221 4.564-.538 1.655-.478 2.681-.345 3.847C5.821 29.808 10.866 34 17.97 34c7.097 0 12.135-3.355 13.513-11.125.026-.335.052-.669.052-1.01.001-2.907-.479-4.047-1.642-5.657z"/><path fill="#C1694F" d="M18 30c-4.188 0-6.357-1.06-6.447-1.105a1 1 0 0 1 .89-1.791c.051.024 1.925.896 5.557.896 3.665 0 5.54-.888 5.559-.897a1.003 1.003 0 0 1 1.336.457.997.997 0 0 1-.447 1.335C24.356 28.94 22.188 30 18 30zM19 25h-2a1 1 0 1 1 0-2h2a1 1 0 1 1 0 2z"/><path fill="#662113" d="M12 22a1 1 0 0 1-1-1v-2a1 1 0 0 1 2 0v2a1 1 0 0 1-1 1zM24 22a1 1 0 0 1-1-1v-2a1 1 0 1 1 2 0v2a1 1 0 0 1-1 1z"/></svg>
