<svg xmlns="http://www.w3.org/2000/svg" viewBox="0 0 36 36"><path fill="#8A4B38" d="M29.857 25.76c.392.253.645.673.685 1.138l.73 8.509h.137a1.55 1.55 0 0 0 1.55-1.576l-.133-7.919a1.483 1.483 0 0 0-.412-1.01c-.816-.844-2.535-2.893-1.854-4.572l-7.648.31 6.945 5.12zM8.128 17.423s.072 2.961-.129 3.921a16.146 16.146 0 0 1-1.218 3.565 2.92 2.92 0 0 0 .232 2.909l2.837 4.124a1.933 1.933 0 0 0 .295-2.437l-1.583-2.481a1.105 1.105 0 0 1 .088-1.308l3.513-4.159-4.035-4.134z"/><path fill="#662113" d="m15.53 1.814-1-1a.75.75 0 1 0-1.061 1.061l.672.672-.717 2.15-1.586.325-.094-.769a.775.775 0 0 0-.074-.244l-.758-1.517.618-.618A.75.75 0 1 0 10.469.813l-.672.673-2.56-.853a.746.746 0 0 0-.948.474.749.749 0 0 0 .474.948l2.706.902.803 1.606.093.761-.281.058-1.551-1.566A.752.752 0 0 0 8 3.594H6.311l-.781-.78a.736.736 0 0 0-.195-.141l-2-1a.75.75 0 0 0-.67 1.342l1.891.945.056.056-1.849.617a.749.749 0 1 0 .474 1.422l2.885-.961h1.565l1.212 1.223-1.546 2.649A.748.748 0 0 0 8 10.094a.748.748 0 0 0 .648-.372l1.668-2.856.938-.193.031-.002c.013-.002.023-.01.036-.012l2.83-.581a.752.752 0 0 0 .561-.498l1-3a.75.75 0 0 0-.182-.766z"/><path fill="#E6AAAA" d="M12.614 5.633s-.592.59-.929 1.336c-.338.746-1.586.997-2.35 1.06 0 0 .749-.063 1.509.969 2.272-1.135 1.77-3.365 1.77-3.365z"/><path fill="#C1694F" d="M32.106 12.344c0 1.616-1.441 2.247-2.002 2.433-.674-.753-1.696-1.332-3.191-1.332-2.355.001-5.913.899-11.913.899l-4.663-5.997c.578-.246 1.138-.915 1.348-1.378.338-.746.929-1.336.929-1.336-1.156 1.024-2.297.556-3.28 2.396l-1.752.176a3.307 3.307 0 0 0-2.09 1.036c-1.944 2.086-3.927 1.715-3.927 3.301 0 .077.015.88.627.88a.535.535 0 0 0 .079-.006l3.771-.537c.091-.013.183-.019.274-.019 1.468 0 1.948 1.328 1.948 1.955 0 .758-.158 1.061-.158 2.067 0 4.611 3.645 7.132 5.591 7.132 4.276 0 6.148-1.862 8.716-1.862.174 0 .356.017.54.043a8.082 8.082 0 0 0 2.791 3.894c.536.406.738 1.118.496 1.745l-2.903 7.51h.785a1.55 1.55 0 0 0 1.366-.818l3.166-5.909a3.277 3.277 0 0 0 .065-2.97 2.919 2.919 0 0 1 .31-3.033l.971-1.27c.641-.936 1.223-2.484 1.223-3.787 0-.35-.077-.811-.249-1.296 2.958-.55 2.05-3.917 1.132-3.917z"/><path fill="#FFB699" d="M2.193 13.441a.578.578 0 0 1-.525-.337 1.359 1.359 0 0 1 .605-1.766l.275-.145a.364.364 0 0 1 .147-.041l.034-.002c.705 0 1.228.62 1.361 1.204.079.349.01.635-.186.792a.355.355 0 0 1-.174.076l-1.456.214-.081.005zM30.971 16.25a4.702 4.702 0 0 0-.223-.526c.431-.125 2.132-.73 2.135-2.474.32 1.04.046 2.632-1.912 3zM13.78 24.014c3.551 0 5.543-1.322 7.553-1.758a.055.055 0 0 0 .011-.104c-2.643-1.208-5.293-.43-7.157-.365-2.367.083-3.602-1.518-4.071-3.038-.376-1.219-1.203-1.529-1.856-1.457a.151.151 0 0 0-.134.164c.116 4.236 3.815 6.558 5.654 6.558z"/><path fill="#C1694F" d="M9.355 16.902c0 1.661 2.951 11.204 1.323 18.442h.022a1.942 1.942 0 0 0 1.925-1.762c.243-2.549 1.145-9.554 1.375-12.238l-4.645-4.442z"/><path fill="#292F33" d="M31.272 35.407h.137a1.55 1.55 0 0 0 1.55-1.576l-.008-.487h-1.856l.177 2.063zM24.11 33.344l-.773 2h.785a1.55 1.55 0 0 0 1.366-.818l.634-1.182H24.11zM12.648 33.344H11.01a20.384 20.384 0 0 1-.331 2h.022a1.942 1.942 0 0 0 1.925-1.762l.022-.238zM9.865 29.064l-1.385.884 1.371 1.993a1.933 1.933 0 0 0 .295-2.437l-.281-.44zM2.685 12.035a.746.746 0 0 0-.418-.669.065.065 0 0 0-.059.002 1.37 1.37 0 0 0-.627 1.501.062.062 0 0 0 .068.047c.418-.051 1.036-.493 1.036-.881z"/><circle fill="#292F33" cx="7.209" cy="10.024" r=".718"/></svg>
